# Blender v2.73 (sub 0) OBJ File: ''
# www.blender.org
v 1.122094 2.290217 -2.657218
v 1.402065 2.290217 -2.412542
v 1.628171 2.290217 -2.116633
v 1.791723 2.290217 -1.780864
v 1.886434 2.290217 -1.418139
v 1.908666 2.290217 -1.042395
v 1.857564 2.290217 -0.668073
v 1.735092 2.290217 -0.309559
v 1.545957 2.290217 0.019372
v 0.000393 4.290217 -1.079397
v 1.297426 2.290217 0.306077
v 0.999052 2.290217 0.539539
v 0.662299 2.290217 0.710787
v 0.300109 2.290217 0.813238
v -0.073599 2.290217 0.842957
v -0.444463 2.290217 0.798801
v -0.798231 2.290217 0.682466
v -1.121309 2.290217 0.498424
v -1.401280 2.290217 0.253747
v -1.627386 2.290217 -0.042161
v -1.790937 2.290217 -0.377930
v -1.885649 2.290217 -0.740657
v -1.907881 2.290217 -1.116400
v -1.856778 2.290217 -1.490722
v -1.734306 2.290217 -1.849237
v -1.545170 2.290217 -2.178167
v -1.296639 2.290217 -2.464872
v -0.998264 2.290217 -2.698334
v -0.661511 2.290217 -2.869581
v -0.299321 2.290217 -2.972033
v 0.074386 2.290217 -3.001751
v 0.445250 2.290217 -2.957594
v 0.799019 2.290217 -2.841259
vn 0.225200 0.693100 -0.684700
vn 0.474000 0.693700 -0.542300
vn 0.085300 0.692100 -0.716800
vn -0.057300 0.690700 -0.720800
vn -0.197200 0.689300 -0.697100
vn -0.329000 0.687900 -0.646900
vn -0.447800 0.686900 -0.572400
vn -0.549500 0.686400 -0.476400
vn -0.630500 0.686400 -0.362500
vn -0.687700 0.686900 -0.234900
vn -0.719100 0.687900 -0.098200
vn -0.723200 0.689300 0.042800
vn -0.699700 0.690700 0.182700
vn -0.648900 0.692100 0.316100
vn -0.572800 0.693100 0.437600
vn -0.474000 0.693700 0.542300
vn -0.356500 0.693700 0.625800
vn -0.225200 0.693100 0.684700
vn -0.085300 0.692100 0.716800
vn 0.057300 0.690700 0.720800
vn 0.197200 0.689300 0.697100
vn 0.329000 0.687900 0.646900
vn 0.447800 0.686900 0.572400
vn 0.549500 0.686400 0.476400
vn 0.630500 0.686400 0.362500
vn 0.687700 0.686900 0.234900
vn 0.719100 0.687900 0.098200
vn 0.723200 0.689300 -0.042800
vn 0.699700 0.690700 -0.182700
vn 0.648900 0.692100 -0.316100
vn 0.356500 0.693700 -0.625800
vn 0.572800 0.693100 -0.437600
vn 0.000000 -1.000000 0.000000
s off
f 32//1 10//1 33//1
f 1//2 10//2 2//2
f 31//3 10//3 32//3
f 30//4 10//4 31//4
f 29//5 10//5 30//5
f 28//6 10//6 29//6
f 27//7 10//7 28//7
f 26//8 10//8 27//8
f 25//9 10//9 26//9
f 24//10 10//10 25//10
f 23//11 10//11 24//11
f 22//12 10//12 23//12
f 21//13 10//13 22//13
f 20//14 10//14 21//14
f 19//15 10//15 20//15
f 18//16 10//16 19//16
f 17//17 10//17 18//17
f 16//18 10//18 17//18
f 15//19 10//19 16//19
f 14//20 10//20 15//20
f 13//21 10//21 14//21
f 12//22 10//22 13//22
f 11//23 10//23 12//23
f 9//24 10//24 11//24
f 8//25 10//25 9//25
f 7//26 10//26 8//26
f 6//27 10//27 7//27
f 5//28 10//28 6//28
f 4//29 10//29 5//29
f 3//30 10//30 4//30
f 33//31 10//31 1//31
f 2//32 10//32 3//32
f 25//33 9//33 11//33
f 2//33 33//33 1//33
f 3//33 31//33 32//33
f 5//33 29//33 30//33
f 8//33 27//33 28//33
f 9//33 25//33 26//33
f 12//33 23//33 24//33
f 15//33 21//33 22//33
f 16//33 19//33 20//33
f 19//33 17//33 18//33
f 21//33 15//33 16//33
f 23//33 13//33 14//33
f 25//33 11//33 12//33
f 27//33 8//33 9//33
f 29//33 6//33 7//33
f 30//33 4//33 5//33
f 33//33 2//33 3//33
f 3//33 32//33 33//33
f 7//33 28//33 29//33
f 12//33 24//33 25//33
f 16//33 20//33 21//33
f 19//33 16//33 17//33
f 23//33 12//33 13//33
f 28//33 7//33 8//33
f 31//33 3//33 4//33
f 4//33 30//33 31//33
f 14//33 22//33 23//33
f 22//33 14//33 15//33
f 29//33 5//33 6//33
f 9//33 26//33 27//33
v 0.898819 -0.960824 -2.299744
v 0.898819 2.354124 -2.299744
v 1.172737 -0.960824 -2.070467
v 1.172737 2.354124 -2.070467
v 1.403504 -0.960824 -1.804109
v 1.403504 2.354124 -1.804109
v 1.582250 -0.960824 -1.510906
v 1.582250 2.354124 -1.510906
v 1.702107 -0.960824 -1.202125
v 1.702107 2.354124 -1.202125
v 1.758468 -0.960824 -0.889633
v 1.758468 2.354124 -0.889633
v 1.749168 -0.960824 -0.585438
v 1.749168 2.354124 -0.585438
v 1.674564 -0.960824 -0.301231
v 1.674564 2.354124 -0.301231
v 1.537523 -0.960824 -0.047934
v 1.537523 2.354124 -0.047934
v 1.343311 -0.960824 0.164720
v 1.343311 2.354124 0.164720
v 1.099392 -0.960824 0.328558
v 1.099392 2.354124 0.328558
v 0.815139 -0.960824 0.437285
v 0.815139 2.354124 0.437285
v 0.501477 -0.960824 0.486721
v 0.501477 2.354124 0.486721
v 0.170459 -0.960824 0.474967
v 0.170459 2.354124 0.474967
v -0.165195 -0.960824 0.402474
v -0.165195 2.354124 0.402474
v -0.492584 -0.960824 0.272029
v -0.492584 2.354124 0.272029
v -0.799129 -0.960824 0.088644
v -0.799129 2.354124 0.088644
v -1.073048 -0.960824 -0.140633
v -1.073048 2.354124 -0.140633
v -1.303814 -0.960824 -0.406991
v -1.303814 2.354124 -0.406991
v -1.482560 -0.960824 -0.700194
v -1.482560 2.354124 -0.700194
v -1.602417 -0.960824 -1.008975
v -1.602417 2.354124 -1.008975
v -1.658778 -0.960824 -1.321468
v -1.658778 2.354124 -1.321468
v -1.649477 -0.960824 -1.625662
v -1.649477 2.354124 -1.625662
v -1.574873 -0.960824 -1.909869
v -1.574873 2.354124 -1.909869
v -1.437831 -0.960824 -2.163167
v -1.437831 2.354124 -2.163167
v -1.243619 -0.960824 -2.375821
v -1.243619 2.354124 -2.375821
v -0.999700 -0.960824 -2.539659
v -0.999700 2.354124 -2.539659
v -0.715447 -0.960824 -2.648384
v -0.715447 2.354124 -2.648384
v -0.401784 -0.960824 -2.697820
v -0.401784 2.354124 -2.697820
v -0.070766 -0.960824 -2.686065
v -0.070766 2.354124 -2.686065
v 0.264888 -0.960824 -2.613572
v 0.264888 2.354124 -2.613572
v 0.592277 -0.960824 -2.483127
v 0.592277 2.354124 -2.483127
vn 0.641900 0.000000 -0.766800
vn 0.755800 0.000000 -0.654800
vn 0.853800 0.000000 -0.520500
vn 0.932200 0.000000 -0.361900
vn 0.984100 0.000000 -0.177500
vn 0.999500 0.000000 0.030600
vn 0.967200 0.000000 0.253900
vn 0.879500 0.000000 0.475800
vn 0.738400 0.000000 0.674400
vn 0.557600 0.000000 0.830100
vn 0.357300 0.000000 0.934000
vn 0.155700 0.000000 0.987800
vn -0.035500 0.000000 0.999400
vn -0.211100 0.000000 0.977500
vn -0.370100 0.000000 0.929000
vn -0.513400 0.000000 0.858200
vn -0.641900 0.000000 0.766800
vn -0.755800 0.000000 0.654800
vn -0.853800 0.000000 0.520500
vn -0.932200 0.000000 0.361900
vn -0.984100 0.000000 0.177500
vn -0.999500 0.000000 -0.030600
vn -0.967200 0.000000 -0.253900
vn -0.879500 0.000000 -0.475900
vn -0.738400 0.000000 -0.674400
vn -0.557600 0.000000 -0.830100
vn -0.357300 0.000000 -0.934000
vn -0.155700 0.000000 -0.987800
vn 0.035500 0.000000 -0.999400
vn 0.211100 0.000000 -0.977500
vn 0.000000 1.000000 0.000000
vn 0.513400 0.000000 -0.858200
vn 0.370100 0.000000 -0.929000
vn 0.000000 -1.000000 -0.000000
s off
f 35//34 37//34 36//34
f 37//35 39//35 38//35
f 39//36 41//36 40//36
f 41//37 43//37 42//37
f 43//38 45//38 44//38
f 45//39 47//39 46//39
f 47//40 49//40 48//40
f 49//41 51//41 50//41
f 51//42 53//42 52//42
f 53//43 55//43 54//43
f 55//44 57//44 56//44
f 57//45 59//45 58//45
f 59//46 61//46 60//46
f 61//47 63//47 62//47
f 63//48 65//48 64//48
f 65//49 67//49 66//49
f 67//50 69//50 68//50
f 69//51 71//51 70//51
f 71//52 73//52 72//52
f 73//53 75//53 74//53
f 75//54 77//54 76//54
f 77//55 79//55 78//55
f 79//56 81//56 80//56
f 81//57 83//57 82//57
f 83//58 85//58 84//58
f 85//59 87//59 86//59
f 87//60 89//60 88//60
f 89//61 91//61 90//61
f 91//62 93//62 92//62
f 93//63 95//63 94//63
f 67//64 35//64 69//64
f 97//65 35//65 34//65
f 95//66 97//66 96//66
f 60//67 38//67 40//67
f 34//34 35//34 36//34
f 36//35 37//35 38//35
f 38//36 39//36 40//36
f 40//37 41//37 42//37
f 42//38 43//38 44//38
f 44//39 45//39 46//39
f 46//40 47//40 48//40
f 48//41 49//41 50//41
f 50//42 51//42 52//42
f 52//43 53//43 54//43
f 54//44 55//44 56//44
f 56//45 57//45 58//45
f 58//46 59//46 60//46
f 60//47 61//47 62//47
f 62//48 63//48 64//48
f 64//49 65//49 66//49
f 66//50 67//50 68//50
f 68//51 69//51 70//51
f 70//52 71//52 72//52
f 72//53 73//53 74//53
f 74//54 75//54 76//54
f 76//55 77//55 78//55
f 78//56 79//56 80//56
f 80//57 81//57 82//57
f 82//58 83//58 84//58
f 84//59 85//59 86//59
f 86//60 87//60 88//60
f 88//61 89//61 90//61
f 90//62 91//62 92//62
f 92//63 93//63 94//63
f 65//64 39//64 37//64
f 61//64 43//64 41//64
f 55//64 47//64 45//64
f 53//64 51//64 49//64
f 49//64 55//64 53//64
f 45//64 59//64 57//64
f 41//64 63//64 61//64
f 37//64 67//64 65//64
f 95//64 71//64 69//64
f 93//64 91//64 73//64
f 87//64 79//64 77//64
f 85//64 83//64 81//64
f 81//64 87//64 85//64
f 77//64 91//64 89//64
f 71//64 95//64 93//64
f 69//64 35//64 97//64
f 63//64 41//64 39//64
f 55//64 49//64 47//64
f 45//64 57//64 55//64
f 39//64 65//64 63//64
f 93//64 73//64 71//64
f 87//64 81//64 79//64
f 77//64 89//64 87//64
f 69//64 97//64 95//64
f 61//64 59//64 43//64
f 45//64 43//64 59//64
f 73//64 91//64 75//64
f 77//64 75//64 91//64
f 35//64 67//64 37//64
f 96//65 97//65 34//65
f 94//66 95//66 96//66
f 66//67 96//67 34//67
f 70//67 92//67 94//67
f 76//67 88//67 90//67
f 80//67 84//67 86//67
f 84//67 80//67 82//67
f 86//67 76//67 78//67
f 90//67 72//67 74//67
f 94//67 68//67 70//67
f 34//67 64//67 66//67
f 38//67 60//67 62//67
f 44//67 56//67 58//67
f 48//67 52//67 54//67
f 52//67 48//67 50//67
f 54//67 44//67 46//67
f 58//67 40//67 42//67
f 62//67 64//67 38//67
f 66//67 68//67 96//67
f 76//67 86//67 88//67
f 86//67 78//67 80//67
f 90//67 92//67 72//67
f 34//67 36//67 64//67
f 44//67 54//67 56//67
f 54//67 46//67 48//67
f 58//67 60//67 40//67
f 96//67 68//67 94//67
f 90//67 74//67 76//67
f 64//67 36//67 38//67
f 58//67 42//67 44//67
f 92//67 70//67 72//67
v 2.821314 -1.000000 1.941154
v 0.750618 -1.000000 0.589799
v 1.844123 -1.000000 -1.085791
v 3.914819 -1.000000 0.265566
v 2.821313 1.000000 1.941155
v 0.750617 1.000000 0.589798
v 1.844123 1.000000 -1.085791
v 3.914819 1.000000 0.265565
vn 0.000000 -1.000000 0.000000
vn 0.000000 1.000000 0.000000
vn -0.546500 0.000000 0.837400
vn -0.837400 0.000000 -0.546500
vn 0.546500 -0.000000 -0.837400
vn 0.837400 0.000000 0.546500
s off
f 98//68 99//68 100//68
f 105//69 104//69 103//69
f 102//70 103//70 99//70
f 103//71 104//71 100//71
f 100//72 104//72 105//72
f 102//73 98//73 101//73
f 101//68 98//68 100//68
f 102//69 105//69 103//69
f 98//70 102//70 99//70
f 99//71 103//71 100//71
f 101//72 100//72 105//72
f 105//73 102//73 101//73
