# Blender v2.73 (sub 0) OBJ File: ''
# www.blender.org
v 2.393439 0.003063 0.461456
v 2.678586 0.555843 1.309210
v 1.675292 0.555843 0.994616
v 1.664455 0.555847 -0.056791
v 2.661057 0.555843 -0.391993
v 3.287816 0.555843 0.452246
v 2.125821 1.450283 1.314905
v 1.499063 1.450282 0.470666
v 2.108293 1.450282 -0.386297
v 3.111586 1.450283 -0.071704
v 3.122423 1.450279 0.979704
v 2.393439 2.003063 0.461456
v 1.971326 0.152409 0.774837
v 2.561043 0.152409 0.959750
v 2.138928 0.477325 1.273136
v 3.086743 0.477327 0.954338
v 2.919137 0.152409 0.456043
v 1.964954 0.152411 0.156838
v 1.542837 0.477327 0.470219
v 2.550740 0.152409 -0.040185
v 2.122252 0.477327 -0.344806
v 3.076442 0.477325 -0.045601
v 2.989532 1.003063 1.264372
v 3.347628 1.003063 0.760663
v 1.814020 1.003063 1.276486
v 2.403742 1.003063 1.461403
v 1.439251 1.003063 0.162250
v 1.445617 1.003063 0.780255
v 2.383136 1.003063 -0.538491
v 1.797347 1.003063 -0.341459
v 3.341262 1.003063 0.142658
v 2.972858 1.003063 -0.353573
v 2.664626 1.528799 1.267719
v 1.710437 1.528801 0.968514
v 1.700136 1.528799 -0.031425
v 2.647950 1.528801 -0.350223
v 3.244042 1.528799 0.452694
v 2.236139 1.853717 0.963097
v 2.821925 1.853715 0.766074
v 1.867742 1.853717 0.466870
v 2.225836 1.853717 -0.036837
v 2.815552 1.853717 0.148075
vn -0.099100 -0.943500 0.316100
vn 0.415400 -0.661700 0.624200
vn -0.331300 -0.943500 0.003400
vn -0.105600 -0.943500 -0.314000
vn 0.266000 -0.943500 -0.197500
vn 0.582300 -0.330400 0.742800
vn -0.526500 -0.330400 0.783300
vn -0.907700 -0.330400 -0.258700
vn -0.034500 -0.330400 -0.943200
vn 0.886400 -0.330400 -0.324200
vn 0.316300 -0.125600 0.940300
vn -0.796600 -0.125600 0.591400
vn -0.808600 -0.125600 -0.574800
vn 0.296800 -0.125600 -0.946600
vn 0.992000 -0.125600 -0.010200
vn -0.030800 0.661700 0.749100
vn -0.722000 0.661700 0.202200
vn -0.415400 0.661700 -0.624200
vn 0.465300 0.661700 -0.588000
vn 0.702900 0.661700 0.260800
vn 0.331300 0.943500 -0.003400
vn 0.607000 0.794700 -0.006300
vn 0.697400 0.661700 -0.275200
vn 0.099100 0.943500 -0.316100
vn 0.181600 0.794700 -0.579200
vn -0.046300 0.661700 -0.748300
vn -0.270000 0.943500 -0.192000
vn -0.494800 0.794700 -0.351700
vn -0.726000 0.661700 -0.187300
vn -0.266000 0.943500 0.197500
vn -0.487400 0.794700 0.361900
vn -0.402500 0.661700 0.632600
vn 0.105600 0.943500 0.314000
vn 0.193500 0.794700 0.575400
vn 0.477300 0.661700 0.578200
vn 0.907700 0.330400 0.258700
vn 0.982200 0.187600 -0.010100
vn 0.902200 0.330400 -0.277300
vn 0.526500 0.330400 -0.783300
vn 0.293900 0.187600 -0.937200
vn 0.015000 0.330400 -0.943700
vn -0.582300 0.330400 -0.742800
vn -0.800600 0.187600 -0.569100
vn -0.892900 0.330400 -0.305900
vn -0.886400 0.330400 0.324200
vn -0.788700 0.187600 0.585500
vn -0.566900 0.330400 0.754700
vn 0.034500 0.330400 0.943200
vn 0.313100 0.187600 0.931000
vn 0.542600 0.330400 0.772300
vn 0.796600 0.125600 -0.591400
vn 0.788700 -0.187600 -0.585500
vn 0.566900 -0.330400 -0.754700
vn -0.316300 0.125600 -0.940300
vn -0.313100 -0.187600 -0.931000
vn -0.542600 -0.330400 -0.772300
vn -0.992000 0.125600 0.010200
vn -0.982200 -0.187600 0.010100
vn -0.902200 -0.330400 0.277300
vn -0.296800 0.125600 0.946600
vn -0.293900 -0.187600 0.937200
vn -0.015000 -0.330400 0.943700
vn 0.808600 0.125600 0.574800
vn 0.800600 -0.187600 0.569100
vn 0.892900 -0.330400 0.305900
vn 0.722000 -0.661700 -0.202200
vn 0.487400 -0.794700 -0.361900
vn 0.402500 -0.661700 -0.632600
vn 0.030800 -0.661700 -0.749100
vn -0.193500 -0.794700 -0.575400
vn -0.477300 -0.661700 -0.578200
vn -0.702900 -0.661700 -0.260800
vn -0.607000 -0.794700 0.006300
vn -0.697400 -0.661700 0.275200
vn 0.726000 -0.661700 0.187300
vn 0.494800 -0.794700 0.351700
vn 0.270000 -0.943500 0.192000
vn -0.465300 -0.661700 0.588000
vn -0.181600 -0.794700 0.579200
vn 0.046300 -0.661700 0.748300
s off
f 1//1 14//1 13//1
f 2//2 14//2 16//2
f 1//3 13//3 18//3
f 1//4 18//4 20//4
f 1//5 20//5 17//5
f 2//6 16//6 23//6
f 3//7 15//7 25//7
f 4//8 19//8 27//8
f 5//9 21//9 29//9
f 6//10 22//10 31//10
f 2//11 23//11 26//11
f 3//12 25//12 28//12
f 4//13 27//13 30//13
f 5//14 29//14 32//14
f 6//15 31//15 24//15
f 7//16 33//16 38//16
f 8//17 34//17 40//17
f 9//18 35//18 41//18
f 10//19 36//19 42//19
f 11//20 37//20 39//20
f 39//21 42//21 12//21
f 39//22 37//22 42//22
f 37//23 10//23 42//23
f 42//24 41//24 12//24
f 42//25 36//25 41//25
f 36//26 9//26 41//26
f 41//27 40//27 12//27
f 41//28 35//28 40//28
f 35//29 8//29 40//29
f 40//30 38//30 12//30
f 40//31 34//31 38//31
f 34//32 7//32 38//32
f 38//33 39//33 12//33
f 38//34 33//34 39//34
f 33//35 11//35 39//35
f 24//36 37//36 11//36
f 24//37 31//37 37//37
f 31//38 10//38 37//38
f 32//39 36//39 10//39
f 32//40 29//40 36//40
f 29//41 9//41 36//41
f 30//42 35//42 9//42
f 30//43 27//43 35//43
f 27//44 8//44 35//44
f 28//45 34//45 8//45
f 28//46 25//46 34//46
f 25//47 7//47 34//47
f 26//48 33//48 7//48
f 26//49 23//49 33//49
f 23//50 11//50 33//50
f 31//51 32//51 10//51
f 31//52 22//52 32//52
f 22//53 5//53 32//53
f 29//54 30//54 9//54
f 29//55 21//55 30//55
f 21//56 4//56 30//56
f 27//57 28//57 8//57
f 27//58 19//58 28//58
f 19//59 3//59 28//59
f 25//60 26//60 7//60
f 25//61 15//61 26//61
f 15//62 2//62 26//62
f 23//63 24//63 11//63
f 23//64 16//64 24//64
f 16//65 6//65 24//65
f 17//66 22//66 6//66
f 17//67 20//67 22//67
f 20//68 5//68 22//68
f 20//69 21//69 5//69
f 20//70 18//70 21//70
f 18//71 4//71 21//71
f 18//72 19//72 4//72
f 18//73 13//73 19//73
f 13//74 3//74 19//74
f 16//75 17//75 6//75
f 16//76 14//76 17//76
f 14//77 1//77 17//77
f 13//78 15//78 3//78
f 13//79 14//79 15//79
f 14//80 2//80 15//80
v 1.122094 2.290217 -2.657218
v 1.402065 2.290217 -2.412542
v 1.628171 2.290217 -2.116633
v 1.791723 2.290217 -1.780864
v 1.886434 2.290217 -1.418139
v 1.908666 2.290217 -1.042395
v 1.857564 2.290217 -0.668073
v 1.735092 2.290217 -0.309559
v 1.545957 2.290217 0.019372
v 0.000393 4.290217 -1.079397
v 1.297426 2.290217 0.306077
v 0.999052 2.290217 0.539539
v 0.662299 2.290217 0.710787
v 0.300109 2.290217 0.813238
v -0.073599 2.290217 0.842957
v -0.444463 2.290217 0.798801
v -0.798231 2.290217 0.682466
v -1.121309 2.290217 0.498424
v -1.401280 2.290217 0.253747
v -1.627386 2.290217 -0.042161
v -1.790937 2.290217 -0.377930
v -1.885649 2.290217 -0.740657
v -1.907881 2.290217 -1.116400
v -1.856778 2.290217 -1.490722
v -1.734306 2.290217 -1.849237
v -1.545170 2.290217 -2.178167
v -1.296639 2.290217 -2.464872
v -0.998264 2.290217 -2.698334
v -0.661511 2.290217 -2.869581
v -0.299321 2.290217 -2.972033
v 0.074386 2.290217 -3.001751
v 0.445250 2.290217 -2.957594
v 0.799019 2.290217 -2.841259
vn 0.225200 0.693100 -0.684700
vn 0.474000 0.693700 -0.542300
vn 0.085300 0.692100 -0.716800
vn -0.057300 0.690700 -0.720800
vn -0.197200 0.689300 -0.697100
vn -0.329000 0.687900 -0.646900
vn -0.447800 0.686900 -0.572400
vn -0.549500 0.686400 -0.476400
vn -0.630500 0.686400 -0.362500
vn -0.687700 0.686900 -0.234900
vn -0.719100 0.687900 -0.098200
vn -0.723200 0.689300 0.042800
vn -0.699700 0.690700 0.182700
vn -0.648900 0.692100 0.316100
vn -0.572800 0.693100 0.437600
vn -0.474000 0.693700 0.542300
vn -0.356500 0.693700 0.625800
vn -0.225200 0.693100 0.684700
vn -0.085300 0.692100 0.716800
vn 0.057300 0.690700 0.720800
vn 0.197200 0.689300 0.697100
vn 0.329000 0.687900 0.646900
vn 0.447800 0.686900 0.572400
vn 0.549500 0.686400 0.476400
vn 0.630500 0.686400 0.362500
vn 0.687700 0.686900 0.234900
vn 0.719100 0.687900 0.098200
vn 0.723200 0.689300 -0.042800
vn 0.699700 0.690700 -0.182700
vn 0.648900 0.692100 -0.316100
vn 0.356500 0.693700 -0.625800
vn 0.572800 0.693100 -0.437600
vn 0.000000 -1.000000 0.000000
s off
f 74//81 52//81 75//81
f 43//82 52//82 44//82
f 73//83 52//83 74//83
f 72//84 52//84 73//84
f 71//85 52//85 72//85
f 70//86 52//86 71//86
f 69//87 52//87 70//87
f 68//88 52//88 69//88
f 67//89 52//89 68//89
f 66//90 52//90 67//90
f 65//91 52//91 66//91
f 64//92 52//92 65//92
f 63//93 52//93 64//93
f 62//94 52//94 63//94
f 61//95 52//95 62//95
f 60//96 52//96 61//96
f 59//97 52//97 60//97
f 58//98 52//98 59//98
f 57//99 52//99 58//99
f 56//100 52//100 57//100
f 55//101 52//101 56//101
f 54//102 52//102 55//102
f 53//103 52//103 54//103
f 51//104 52//104 53//104
f 50//105 52//105 51//105
f 49//106 52//106 50//106
f 48//107 52//107 49//107
f 47//108 52//108 48//108
f 46//109 52//109 47//109
f 45//110 52//110 46//110
f 75//111 52//111 43//111
f 44//112 52//112 45//112
f 67//113 51//113 53//113
f 44//113 75//113 43//113
f 45//113 73//113 74//113
f 47//113 71//113 72//113
f 50//113 69//113 70//113
f 51//113 67//113 68//113
f 54//113 65//113 66//113
f 57//113 63//113 64//113
f 58//113 61//113 62//113
f 61//113 59//113 60//113
f 63//113 57//113 58//113
f 65//113 55//113 56//113
f 67//113 53//113 54//113
f 69//113 50//113 51//113
f 71//113 48//113 49//113
f 72//113 46//113 47//113
f 75//113 44//113 45//113
f 45//113 74//113 75//113
f 49//113 70//113 71//113
f 54//113 66//113 67//113
f 58//113 62//113 63//113
f 61//113 58//113 59//113
f 65//113 54//113 55//113
f 70//113 49//113 50//113
f 73//113 45//113 46//113
f 46//113 72//113 73//113
f 56//113 64//113 65//113
f 64//113 56//113 57//113
f 71//113 47//113 48//113
f 51//113 68//113 69//113
v 0.898819 -0.960824 -2.299744
v 0.898819 2.354124 -2.299744
v 1.172737 -0.960824 -2.070467
v 1.172737 2.354124 -2.070467
v 1.403504 -0.960824 -1.804109
v 1.403504 2.354124 -1.804109
v 1.582250 -0.960824 -1.510906
v 1.582250 2.354124 -1.510906
v 1.702107 -0.960824 -1.202125
v 1.702107 2.354124 -1.202125
v 1.758468 -0.960824 -0.889633
v 1.758468 2.354124 -0.889633
v 1.749168 -0.960824 -0.585438
v 1.749168 2.354124 -0.585438
v 1.674564 -0.960824 -0.301231
v 1.674564 2.354124 -0.301231
v 1.537523 -0.960824 -0.047934
v 1.537523 2.354124 -0.047934
v 1.343311 -0.960824 0.164720
v 1.343311 2.354124 0.164720
v 1.099392 -0.960824 0.328558
v 1.099392 2.354124 0.328558
v 0.815139 -0.960824 0.437285
v 0.815139 2.354124 0.437285
v 0.501477 -0.960824 0.486721
v 0.501477 2.354124 0.486721
v 0.170459 -0.960824 0.474967
v 0.170459 2.354124 0.474967
v -0.165195 -0.960824 0.402474
v -0.165195 2.354124 0.402474
v -0.492584 -0.960824 0.272029
v -0.492584 2.354124 0.272029
v -0.799129 -0.960824 0.088644
v -0.799129 2.354124 0.088644
v -1.073048 -0.960824 -0.140633
v -1.073048 2.354124 -0.140633
v -1.303814 -0.960824 -0.406991
v -1.303814 2.354124 -0.406991
v -1.482560 -0.960824 -0.700194
v -1.482560 2.354124 -0.700194
v -1.602417 -0.960824 -1.008975
v -1.602417 2.354124 -1.008975
v -1.658778 -0.960824 -1.321468
v -1.658778 2.354124 -1.321468
v -1.649477 -0.960824 -1.625662
v -1.649477 2.354124 -1.625662
v -1.574873 -0.960824 -1.909869
v -1.574873 2.354124 -1.909869
v -1.437831 -0.960824 -2.163167
v -1.437831 2.354124 -2.163167
v -1.243619 -0.960824 -2.375821
v -1.243619 2.354124 -2.375821
v -0.999700 -0.960824 -2.539659
v -0.999700 2.354124 -2.539659
v -0.715447 -0.960824 -2.648384
v -0.715447 2.354124 -2.648384
v -0.401784 -0.960824 -2.697820
v -0.401784 2.354124 -2.697820
v -0.070766 -0.960824 -2.686065
v -0.070766 2.354124 -2.686065
v 0.264888 -0.960824 -2.613572
v 0.264888 2.354124 -2.613572
v 0.592277 -0.960824 -2.483127
v 0.592277 2.354124 -2.483127
vn 0.641900 0.000000 -0.766800
vn 0.755800 0.000000 -0.654800
vn 0.853800 0.000000 -0.520500
vn 0.932200 0.000000 -0.361900
vn 0.984100 0.000000 -0.177500
vn 0.999500 0.000000 0.030600
vn 0.967200 0.000000 0.253900
vn 0.879500 0.000000 0.475800
vn 0.738400 0.000000 0.674400
vn 0.557600 0.000000 0.830100
vn 0.357300 0.000000 0.934000
vn 0.155700 0.000000 0.987800
vn -0.035500 0.000000 0.999400
vn -0.211100 0.000000 0.977500
vn -0.370100 0.000000 0.929000
vn -0.513400 0.000000 0.858200
vn -0.641900 0.000000 0.766800
vn -0.755800 0.000000 0.654800
vn -0.853800 0.000000 0.520500
vn -0.932200 0.000000 0.361900
vn -0.984100 0.000000 0.177500
vn -0.999500 0.000000 -0.030600
vn -0.967200 0.000000 -0.253900
vn -0.879500 0.000000 -0.475900
vn -0.738400 0.000000 -0.674400
vn -0.557600 0.000000 -0.830100
vn -0.357300 0.000000 -0.934000
vn -0.155700 0.000000 -0.987800
vn 0.035500 0.000000 -0.999400
vn 0.211100 0.000000 -0.977500
vn 0.000000 1.000000 0.000000
vn 0.513400 0.000000 -0.858200
vn 0.370100 0.000000 -0.929000
vn 0.000000 -1.000000 -0.000000
s off
f 77//114 79//114 78//114
f 79//115 81//115 80//115
f 81//116 83//116 82//116
f 83//117 85//117 84//117
f 85//118 87//118 86//118
f 87//119 89//119 88//119
f 89//120 91//120 90//120
f 91//121 93//121 92//121
f 93//122 95//122 94//122
f 95//123 97//123 96//123
f 97//124 99//124 98//124
f 99//125 101//125 100//125
f 101//126 103//126 102//126
f 103//127 105//127 104//127
f 105//128 107//128 106//128
f 107//129 109//129 108//129
f 109//130 111//130 110//130
f 111//131 113//131 112//131
f 113//132 115//132 114//132
f 115//133 117//133 116//133
f 117//134 119//134 118//134
f 119//135 121//135 120//135
f 121//136 123//136 122//136
f 123//137 125//137 124//137
f 125//138 127//138 126//138
f 127//139 129//139 128//139
f 129//140 131//140 130//140
f 131//141 133//141 132//141
f 133//142 135//142 134//142
f 135//143 137//143 136//143
f 109//144 77//144 111//144
f 139//145 77//145 76//145
f 137//146 139//146 138//146
f 102//147 80//147 82//147
f 76//114 77//114 78//114
f 78//115 79//115 80//115
f 80//116 81//116 82//116
f 82//117 83//117 84//117
f 84//118 85//118 86//118
f 86//119 87//119 88//119
f 88//120 89//120 90//120
f 90//121 91//121 92//121
f 92//122 93//122 94//122
f 94//123 95//123 96//123
f 96//124 97//124 98//124
f 98//125 99//125 100//125
f 100//126 101//126 102//126
f 102//127 103//127 104//127
f 104//128 105//128 106//128
f 106//129 107//129 108//129
f 108//130 109//130 110//130
f 110//131 111//131 112//131
f 112//132 113//132 114//132
f 114//133 115//133 116//133
f 116//134 117//134 118//134
f 118//135 119//135 120//135
f 120//136 121//136 122//136
f 122//137 123//137 124//137
f 124//138 125//138 126//138
f 126//139 127//139 128//139
f 128//140 129//140 130//140
f 130//141 131//141 132//141
f 132//142 133//142 134//142
f 134//143 135//143 136//143
f 107//144 81//144 79//144
f 103//144 85//144 83//144
f 97//144 89//144 87//144
f 95//144 93//144 91//144
f 91//144 97//144 95//144
f 87//144 101//144 99//144
f 83//144 105//144 103//144
f 79//144 109//144 107//144
f 137//144 113//144 111//144
f 135//144 133//144 115//144
f 129//144 121//144 119//144
f 127//144 125//144 123//144
f 123//144 129//144 127//144
f 119//144 133//144 131//144
f 113//144 137//144 135//144
f 111//144 77//144 139//144
f 105//144 83//144 81//144
f 97//144 91//144 89//144
f 87//144 99//144 97//144
f 81//144 107//144 105//144
f 135//144 115//144 113//144
f 129//144 123//144 121//144
f 119//144 131//144 129//144
f 111//144 139//144 137//144
f 103//144 101//144 85//144
f 87//144 85//144 101//144
f 115//144 133//144 117//144
f 119//144 117//144 133//144
f 77//144 109//144 79//144
f 138//145 139//145 76//145
f 136//146 137//146 138//146
f 108//147 138//147 76//147
f 112//147 134//147 136//147
f 118//147 130//147 132//147
f 122//147 126//147 128//147
f 126//147 122//147 124//147
f 128//147 118//147 120//147
f 132//147 114//147 116//147
f 136//147 110//147 112//147
f 76//147 106//147 108//147
f 80//147 102//147 104//147
f 86//147 98//147 100//147
f 90//147 94//147 96//147
f 94//147 90//147 92//147
f 96//147 86//147 88//147
f 100//147 82//147 84//147
f 104//147 106//147 80//147
f 108//147 110//147 138//147
f 118//147 128//147 130//147
f 128//147 120//147 122//147
f 132//147 134//147 114//147
f 76//147 78//147 106//147
f 86//147 96//147 98//147
f 96//147 88//147 90//147
f 100//147 102//147 82//147
f 138//147 110//147 136//147
f 132//147 116//147 118//147
f 106//147 78//147 80//147
f 100//147 84//147 86//147
f 134//147 112//147 114//147
v 2.821314 -1.000000 1.941154
v 0.750618 -1.000000 0.589799
v 1.844123 -1.000000 -1.085791
v 3.914819 -1.000000 0.265566
v 2.821313 1.000000 1.941155
v 0.750617 1.000000 0.589798
v 1.844123 1.000000 -1.085791
v 3.914819 1.000000 0.265565
vn 0.000000 -1.000000 0.000000
vn 0.000000 1.000000 0.000000
vn -0.546500 0.000000 0.837400
vn -0.837400 0.000000 -0.546500
vn 0.546500 -0.000000 -0.837400
vn 0.837400 0.000000 0.546500
s off
f 140//148 141//148 142//148
f 147//149 146//149 145//149
f 144//150 145//150 141//150
f 145//151 146//151 142//151
f 142//152 146//152 147//152
f 144//153 140//153 143//153
f 143//148 140//148 142//148
f 144//149 147//149 145//149
f 140//150 144//150 141//150
f 141//151 145//151 142//151
f 143//152 142//152 147//152
f 147//153 144//153 143//153
